<svg id="visual" viewBox="0 0 960 540" width="960" height="540" xmlns="http://www.w3.org/2000/svg" xmlns:xlink="http://www.w3.org/1999/xlink" version="1.1"><rect x="0" y="0" width="960" height="540" fill="#001220"></rect><path d="M0 169L22.8 159.2C45.7 149.3 91.3 129.7 137 123.2C182.7 116.7 228.3 123.3 274 133.2C319.7 143 365.3 156 411.2 159.8C457 163.7 503 158.3 548.8 148.2C594.7 138 640.3 123 686 118.3C731.7 113.7 777.3 119.3 823 122.8C868.7 126.3 914.3 127.7 937.2 128.3L960 129L960 0L937.2 0C914.3 0 868.7 0 823 0C777.3 0 731.7 0 686 0C640.3 0 594.7 0 548.8 0C503 0 457 0 411.2 0C365.3 0 319.7 0 274 0C228.3 0 182.7 0 137 0C91.3 0 45.7 0 22.8 0L0 0Z" fill="#d05249"></path><path d="M0 143L22.8 140.7C45.7 138.3 91.3 133.7 137 126.2C182.7 118.7 228.3 108.3 274 106C319.7 103.7 365.3 109.3 411.2 113.2C457 117 503 119 548.8 121.7C594.7 124.3 640.3 127.7 686 126C731.7 124.3 777.3 117.7 823 119.2C868.7 120.7 914.3 130.3 937.2 135.2L960 140L960 0L937.2 0C914.3 0 868.7 0 823 0C777.3 0 731.7 0 686 0C640.3 0 594.7 0 548.8 0C503 0 457 0 411.2 0C365.3 0 319.7 0 274 0C228.3 0 182.7 0 137 0C91.3 0 45.7 0 22.8 0L0 0Z" fill="#c44548"></path><path d="M0 63L22.8 65.3C45.7 67.7 91.3 72.3 137 72.5C182.7 72.7 228.3 68.3 274 72.8C319.7 77.3 365.3 90.7 411.2 91C457 91.3 503 78.7 548.8 78.5C594.7 78.3 640.3 90.7 686 90.7C731.7 90.7 777.3 78.3 823 74.5C868.7 70.7 914.3 75.3 937.2 77.7L960 80L960 0L937.2 0C914.3 0 868.7 0 823 0C777.3 0 731.7 0 686 0C640.3 0 594.7 0 548.8 0C503 0 457 0 411.2 0C365.3 0 319.7 0 274 0C228.3 0 182.7 0 137 0C91.3 0 45.7 0 22.8 0L0 0Z" fill="#b83946"></path><path d="M0 59L22.8 59.7C45.7 60.3 91.3 61.7 137 61C182.7 60.3 228.3 57.7 274 57C319.7 56.3 365.3 57.7 411.2 58.7C457 59.7 503 60.3 548.8 58.8C594.7 57.3 640.3 53.7 686 55C731.7 56.3 777.3 62.7 823 64C868.7 65.3 914.3 61.7 937.2 59.8L960 58L960 0L937.2 0C914.3 0 868.7 0 823 0C777.3 0 731.7 0 686 0C640.3 0 594.7 0 548.8 0C503 0 457 0 411.2 0C365.3 0 319.7 0 274 0C228.3 0 182.7 0 137 0C91.3 0 45.7 0 22.8 0L0 0Z" fill="#ac2d44"></path><path d="M0 34L22.8 31.7C45.7 29.3 91.3 24.7 137 25C182.7 25.3 228.3 30.7 274 31.7C319.7 32.7 365.3 29.3 411.2 30.8C457 32.3 503 38.7 548.8 42.7C594.7 46.7 640.3 48.3 686 49.2C731.7 50 777.3 50 823 47C868.7 44 914.3 38 937.2 35L960 32L960 0L937.2 0C914.3 0 868.7 0 823 0C777.3 0 731.7 0 686 0C640.3 0 594.7 0 548.8 0C503 0 457 0 411.2 0C365.3 0 319.7 0 274 0C228.3 0 182.7 0 137 0C91.3 0 45.7 0 22.8 0L0 0Z" fill="#9f2042"></path></svg>