<svg id="visual" viewBox="0 0 900 900" width="900" height="900" xmlns="http://www.w3.org/2000/svg" xmlns:xlink="http://www.w3.org/1999/xlink" version="1.1"><path d="M673 900L670.3 878.5C667.7 857 662.3 814 664.2 771.2C666 728.3 675 685.7 674.7 642.8C674.3 600 664.7 557 652 514.2C639.3 471.3 623.7 428.7 621.8 385.8C620 343 632 300 636.2 257.2C640.3 214.3 636.7 171.7 630.7 128.8C624.7 86 616.3 43 612.2 21.5L608 0L900 0L900 21.5C900 43 900 86 900 128.8C900 171.7 900 214.3 900 257.2C900 300 900 343 900 385.8C900 428.7 900 471.3 900 514.2C900 557 900 600 900 642.8C900 685.7 900 728.3 900 771.2C900 814 900 857 900 878.5L900 900Z" fill="#709dab" stroke-linecap="round" stroke-linejoin="miter"></path></svg>